<?xml version="1.0" encoding="utf-8"?>
<!-- Generator: Adobe Illustrator 16.0.0, SVG Export Plug-In . SVG Version: 6.00 Build 0)  -->
<!DOCTYPE svg PUBLIC "-//W3C//DTD SVG 1.1//EN" "http://www.w3.org/Graphics/SVG/1.1/DTD/svg11.dtd">
<svg version="1.1" id="Layer_1" xmlns="http://www.w3.org/2000/svg" xmlns:xlink="http://www.w3.org/1999/xlink" x="0px" y="0px"
	 width="403px" height="219px" viewBox="0 0 403 219" enable-background="new 0 0 403 219" xml:space="preserve">
<g>
	<g>
		
			<circle fill="none" stroke="#38B0E6" stroke-width="4" stroke-linecap="round" stroke-linejoin="round" stroke-miterlimit="10" cx="183.556" cy="49.62" r="1.276"/>
	</g>
	
		<circle fill="none" stroke="#38B0E6" stroke-width="4" stroke-linecap="round" stroke-linejoin="round" stroke-miterlimit="10" cx="183.556" cy="49.62" r="16.593"/>
	<g>
		
			<circle fill="none" stroke="#38B0E6" stroke-width="4" stroke-linecap="round" stroke-linejoin="round" stroke-miterlimit="10" cx="257.586" cy="45.791" r="1.276"/>
	</g>
	<g>
		
			<circle fill="none" stroke="#38B0E6" stroke-width="4" stroke-linecap="round" stroke-linejoin="round" stroke-miterlimit="10" cx="246.099" cy="131.309" r="1.276"/>
	</g>
	<g>
		
			<circle fill="none" stroke="#38B0E6" stroke-width="4" stroke-linecap="round" stroke-linejoin="round" stroke-miterlimit="10" cx="248.65" cy="24.092" r="6.382"/>
	</g>
	
		<line fill="none" stroke="#38B0E6" stroke-width="4" stroke-linecap="round" stroke-linejoin="round" stroke-miterlimit="10" x1="141" y1="76" x2="258" y2="76"/>
	
		<line fill="none" stroke="#38B0E6" stroke-width="4" stroke-linecap="round" stroke-linejoin="round" stroke-miterlimit="10" x1="217" y1="27" x2="233" y2="27"/>
	
		<line fill="none" stroke="#38B0E6" stroke-width="4" stroke-linecap="round" stroke-linejoin="round" stroke-miterlimit="10" x1="229" y1="46" x2="249" y2="46"/>
	
		<line fill="none" stroke="#38B0E6" stroke-width="4" stroke-linecap="round" stroke-linejoin="round" stroke-miterlimit="10" x1="225" y1="54" x2="246" y2="54"/>
	
		<line fill="none" stroke="#38B0E6" stroke-width="4" stroke-linecap="round" stroke-linejoin="round" stroke-miterlimit="10" x1="225" y1="35" x2="239" y2="35"/>
	
		<line fill="none" stroke="#38B0E6" stroke-width="4" stroke-linecap="round" stroke-linejoin="round" stroke-miterlimit="10" x1="229" y1="136" x2="200" y2="136"/>
	
		<line fill="none" stroke="#38B0E6" stroke-width="4" stroke-linecap="round" stroke-linejoin="round" stroke-miterlimit="10" x1="254" y1="111" x2="234" y2="111"/>
	
		<line fill="none" stroke="#38B0E6" stroke-width="4" stroke-linecap="round" stroke-linejoin="round" stroke-miterlimit="10" x1="251" y1="103" x2="223" y2="103"/>
	
		<line fill="none" stroke="#38B0E6" stroke-width="4" stroke-linecap="round" stroke-linejoin="round" stroke-miterlimit="10" x1="243" y1="120" x2="231" y2="120"/>
	
		<line fill="none" stroke="#38B0E6" stroke-width="4" stroke-linecap="round" stroke-linejoin="round" stroke-miterlimit="10" x1="244.823" y1="68.765" x2="258.381" y2="68.765"/>
	
		<line fill="none" stroke="#38B0E6" stroke-width="4" stroke-linecap="round" stroke-linejoin="round" stroke-miterlimit="10" x1="248.65" y1="90.464" x2="257.091" y2="90.464"/>
	
		<line fill="none" stroke="#38B0E6" stroke-width="4" stroke-linecap="round" stroke-linejoin="round" stroke-miterlimit="10" x1="252.481" y1="84.082" x2="258.334" y2="84.082"/>
	<path fill="none" stroke="#38B0E6" stroke-width="4" stroke-linecap="round" stroke-linejoin="round" stroke-miterlimit="10" d="
		M205.259,122.093c-0.777,0.086-1.559,0.152-2.346,0.199"/>
	<path fill="none" stroke="#38B0E6" stroke-width="4" stroke-linecap="round" stroke-linejoin="round" stroke-miterlimit="10" d="
		M193.767,122.374c-12.646-1.905-24.122-9.478-31.184-19.483"/>
	
		<line fill="none" stroke="#38B0E6" stroke-width="4" stroke-linecap="round" stroke-linejoin="round" stroke-miterlimit="10" x1="246" y1="84" x2="242" y2="84"/>
	
		<line fill="none" stroke="#38B0E6" stroke-width="4" stroke-linecap="round" stroke-linejoin="round" stroke-miterlimit="10" x1="239" y1="91" x2="236" y2="91"/>
	
		<line fill="none" stroke="#38B0E6" stroke-width="4" stroke-linecap="round" stroke-linejoin="round" stroke-miterlimit="10" x1="215" y1="103" x2="212" y2="103"/>
	
		<line fill="none" stroke="#38B0E6" stroke-width="4" stroke-linecap="round" stroke-linejoin="round" stroke-miterlimit="10" x1="220" y1="46" x2="219" y2="46"/>
	<path fill="none" stroke="#38B0E6" stroke-width="4" stroke-linecap="round" stroke-linejoin="round" stroke-miterlimit="10" d="
		M227.177,128.593c0,0,10.838-4.6,15.519-28.739c0,0,0.133-2.854,12.354-2.854h0.003c2.463-6,3.81-13.369,3.81-20.712
		c0-5.23-0.685-10.127-1.967-14.954l-0.112-0.432c-11.749,0.97-16.64-2.337-16.64-2.337c-5.105-27.229-18.072-36.621-18.072-36.621
		l-0.059-0.026c-6.76-2.713-14.137-4.206-21.864-4.206c-32.427,0-58.714,26.286-58.714,58.712c0,32.427,26.287,58.714,58.714,58.714
		C209.908,135.138,219.077,132.806,227.177,128.593L227.177,128.593z"/>
</g>
<rect x="35.83" y="-28" fill="none" width="141.858" height="170.23"/>
<text transform="matrix(1 0 0 1 35.8296 112.3438)" fill="#FFFFFF" font-family="'Alegreya-Bold'" font-size="189.145">4</text>
<rect x="280.141" y="-28" fill="none" width="141.859" height="170.23"/>
<text transform="matrix(1 0 0 1 280.1406 112.3438)" fill="#FFFFFF" font-family="'Alegreya-Bold'" font-size="189.145">4</text>
<rect y="161" fill="none" width="409" height="55"/>
<text transform="matrix(1 0 0 1 115.2388 179.9004)"><tspan x="0" y="0" fill="#FFFFFF" font-family="'AvenirNext-Bold'" font-size="25">Great shot kid.  </tspan><tspan x="-64.199" y="30" fill="#FFFFFF" font-family="'AvenirNext-Bold'" font-size="25">That was one in a million.</tspan></text>
</svg>
