<?xml version="1.0" encoding="utf-8"?>
<!-- Generator: Adobe Illustrator 16.0.0, SVG Export Plug-In . SVG Version: 6.00 Build 0)  -->
<!DOCTYPE svg PUBLIC "-//W3C//DTD SVG 1.1//EN" "http://www.w3.org/Graphics/SVG/1.1/DTD/svg11.dtd">
<svg version="1.1" xmlns="http://www.w3.org/2000/svg" xmlns:xlink="http://www.w3.org/1999/xlink" x="0px" y="0px" width="403px"
	 height="219px" viewBox="0 0 403 219" enable-background="new 0 0 403 219" xml:space="preserve">
<g id="Layer_1" display="none">
	<g display="inline">
		<g>
			
				<circle fill="none" stroke="#38B0E6" stroke-width="4" stroke-linecap="round" stroke-linejoin="round" stroke-miterlimit="10" cx="183.556" cy="49.62" r="1.276"/>
		</g>
		
			<circle fill="none" stroke="#38B0E6" stroke-width="4" stroke-linecap="round" stroke-linejoin="round" stroke-miterlimit="10" cx="183.556" cy="49.62" r="16.593"/>
		<g>
			
				<circle fill="none" stroke="#38B0E6" stroke-width="4" stroke-linecap="round" stroke-linejoin="round" stroke-miterlimit="10" cx="257.586" cy="45.791" r="1.276"/>
		</g>
		<g>
			
				<circle fill="none" stroke="#38B0E6" stroke-width="4" stroke-linecap="round" stroke-linejoin="round" stroke-miterlimit="10" cx="246.099" cy="131.309" r="1.276"/>
		</g>
		<g>
			
				<circle fill="none" stroke="#38B0E6" stroke-width="4" stroke-linecap="round" stroke-linejoin="round" stroke-miterlimit="10" cx="248.65" cy="24.092" r="6.382"/>
		</g>
		
			<line fill="none" stroke="#38B0E6" stroke-width="4" stroke-linecap="round" stroke-linejoin="round" stroke-miterlimit="10" x1="141" y1="76" x2="258" y2="76"/>
		
			<line fill="none" stroke="#38B0E6" stroke-width="4" stroke-linecap="round" stroke-linejoin="round" stroke-miterlimit="10" x1="217" y1="27" x2="233" y2="27"/>
		
			<line fill="none" stroke="#38B0E6" stroke-width="4" stroke-linecap="round" stroke-linejoin="round" stroke-miterlimit="10" x1="229" y1="46" x2="249" y2="46"/>
		
			<line fill="none" stroke="#38B0E6" stroke-width="4" stroke-linecap="round" stroke-linejoin="round" stroke-miterlimit="10" x1="225" y1="54" x2="246" y2="54"/>
		
			<line fill="none" stroke="#38B0E6" stroke-width="4" stroke-linecap="round" stroke-linejoin="round" stroke-miterlimit="10" x1="225" y1="35" x2="239" y2="35"/>
		
			<line fill="none" stroke="#38B0E6" stroke-width="4" stroke-linecap="round" stroke-linejoin="round" stroke-miterlimit="10" x1="229" y1="136" x2="200" y2="136"/>
		
			<line fill="none" stroke="#38B0E6" stroke-width="4" stroke-linecap="round" stroke-linejoin="round" stroke-miterlimit="10" x1="254" y1="111" x2="234" y2="111"/>
		
			<line fill="none" stroke="#38B0E6" stroke-width="4" stroke-linecap="round" stroke-linejoin="round" stroke-miterlimit="10" x1="251" y1="103" x2="223" y2="103"/>
		
			<line fill="none" stroke="#38B0E6" stroke-width="4" stroke-linecap="round" stroke-linejoin="round" stroke-miterlimit="10" x1="243" y1="120" x2="231" y2="120"/>
		
			<line fill="none" stroke="#38B0E6" stroke-width="4" stroke-linecap="round" stroke-linejoin="round" stroke-miterlimit="10" x1="244.823" y1="68.765" x2="258.381" y2="68.765"/>
		
			<line fill="none" stroke="#38B0E6" stroke-width="4" stroke-linecap="round" stroke-linejoin="round" stroke-miterlimit="10" x1="248.65" y1="90.464" x2="257.091" y2="90.464"/>
		
			<line fill="none" stroke="#38B0E6" stroke-width="4" stroke-linecap="round" stroke-linejoin="round" stroke-miterlimit="10" x1="252.481" y1="84.082" x2="258.334" y2="84.082"/>
		<path fill="none" stroke="#38B0E6" stroke-width="4" stroke-linecap="round" stroke-linejoin="round" stroke-miterlimit="10" d="
			M205.259,122.093c-0.777,0.086-1.559,0.152-2.346,0.199"/>
		<path fill="none" stroke="#38B0E6" stroke-width="4" stroke-linecap="round" stroke-linejoin="round" stroke-miterlimit="10" d="
			M193.767,122.374c-12.646-1.905-24.122-9.478-31.184-19.483"/>
		
			<line fill="none" stroke="#38B0E6" stroke-width="4" stroke-linecap="round" stroke-linejoin="round" stroke-miterlimit="10" x1="246" y1="84" x2="242" y2="84"/>
		
			<line fill="none" stroke="#38B0E6" stroke-width="4" stroke-linecap="round" stroke-linejoin="round" stroke-miterlimit="10" x1="239" y1="91" x2="236" y2="91"/>
		
			<line fill="none" stroke="#38B0E6" stroke-width="4" stroke-linecap="round" stroke-linejoin="round" stroke-miterlimit="10" x1="215" y1="103" x2="212" y2="103"/>
		
			<line fill="none" stroke="#38B0E6" stroke-width="4" stroke-linecap="round" stroke-linejoin="round" stroke-miterlimit="10" x1="220" y1="46" x2="219" y2="46"/>
		<path fill="none" stroke="#38B0E6" stroke-width="4" stroke-linecap="round" stroke-linejoin="round" stroke-miterlimit="10" d="
			M227.177,128.593c0,0,10.838-4.6,15.519-28.739c0,0,0.133-2.854,12.354-2.854h0.003c2.463-6,3.81-13.369,3.81-20.712
			c0-5.23-0.685-10.127-1.967-14.954l-0.112-0.432c-11.749,0.97-16.64-2.337-16.64-2.337c-5.105-27.229-18.072-36.621-18.072-36.621
			l-0.059-0.026c-6.76-2.713-14.137-4.206-21.864-4.206c-32.427,0-58.714,26.286-58.714,58.712
			c0,32.427,26.287,58.714,58.714,58.714C209.908,135.138,219.077,132.806,227.177,128.593L227.177,128.593z"/>
	</g>
	<rect x="35.83" y="-28" display="inline" fill="none" width="141.858" height="170.23"/>
	
		<text transform="matrix(1 0 0 1 35.8296 112.3438)" display="inline" fill="#FFFFFF" font-family="'Alegreya-Bold'" font-size="189.145">4</text>
	<rect x="280.141" y="-28" display="inline" fill="none" width="141.859" height="170.23"/>
	
		<text transform="matrix(1 0 0 1 280.1406 112.3438)" display="inline" fill="#FFFFFF" font-family="'Alegreya-Bold'" font-size="189.145">4</text>
	<rect y="161" display="inline" fill="none" width="409" height="55"/>
	<text transform="matrix(1 0 0 1 115.2388 179.9004)" display="inline"><tspan x="0" y="0" fill="#FFFFFF" font-family="'AvenirNext-Bold'" font-size="25">Great shot kid.  </tspan><tspan x="-64.199" y="30" fill="#FFFFFF" font-family="'AvenirNext-Bold'" font-size="25">That was one in a million.</tspan></text>
</g>
<g id="Layer_2">
	<rect x="16.25" y="66.5" fill="none" width="195.5" height="119"/>
	<text transform="matrix(1 0 0 1 58.2007 85.4004)"><tspan x="0" y="0" fill="#FFFFFF" font-family="'AvenirNext-Bold'" font-size="25">The odds </tspan><tspan x="-36.299" y="30" fill="#FFFFFF" font-family="'AvenirNext-Bold'" font-size="25">weren’t in your </tspan><tspan x="20.487" y="60" fill="#FFFFFF" font-family="'AvenirNext-Bold'" font-size="25">favor. </tspan></text>
	<path fill="#3AB0E6" d="M356.178,160.754c1.371-1.166,2.536-2.468,3.702-3.839c4.867-5.689,9.254-11.448,12.613-18.166
		c6.649-13.299,9.186-28.38,7.403-43.118c-0.892-7.473-2.947-14.808-6.101-21.662c-1.509-3.291-3.291-6.375-5.21-9.392
		c-0.892-1.371-1.646-2.879-1.234-4.524c0.343-1.508,1.439-2.879,2.057-4.318c0.479-1.166,1.508-2.88,0.96-4.182
		c-0.48-1.028-0.892-1.028-1.714-0.48c-0.617,0.411-1.303,0.823-1.92,1.234c-0.959,0.617-3.907,3.085-4.798,2.742
		c-1.028-0.412-2.399-2.399-3.291-3.223c-4.524-4.318-9.392-8.157-14.67-11.447c-10.214-6.307-21.73-10.009-33.727-10.831
		c-6.307-0.411-12.613-0.068-18.852,0.96c-0.822,0.137-1.919,0.548-2.742,0.479c-0.891-0.068-0.274,0.479-0.754-0.617
		c-0.137-0.343-0.206-1.028-0.274-1.371c-0.274-1.508-0.411-3.222-1.028-4.593c-1.371-3.222-4.524,0.411-5.964,1.714
		c-2.673,2.468-5.415,4.936-7.746,7.746c-1.097,1.234-2.057,2.674-3.222,3.771s-2.605,1.851-3.976,2.674
		c-6.307,3.839-12.202,8.568-17.138,14.053c-9.392,10.351-16.109,24.198-18.44,37.977c-2.399,14.259-0.822,29.683,5.004,42.981
		c2.811,6.375,6.649,12.065,10.899,17.549c4.456,5.689,10.009,10.077,15.424,14.738c-3.358,1.852-6.718,3.702-10.076,5.553
		c-0.96-0.686-1.988-1.439-2.948-2.125c-0.686-0.479-0.686-0.548-1.371-0.343c-0.411,0.138-1.097,0.686-1.439,0.96
		c-1.714,1.439-3.222,3.222-4.799,4.729c-1.713,1.646-3.29,3.428-5.209,4.799c-1.646,1.165-3.223,2.331-3.977,4.318
		c5.073-1.37,10.077-3.222,15.287-3.907c1.439-0.205,4.113,0.206,5.142-1.097s0.273-3.358,1.028-4.729
		c0.959-1.852,4.044-2.742,5.758-3.565c1.234-0.616,2.468-1.233,3.702-1.851c0.411-0.205,0.891-0.548,1.37-0.686
		c0.96-0.274,0.823-0.274,1.714,0.274c3.977,2.331,7.884,4.387,12.202,6.032c9.049,3.428,18.783,5.142,28.518,4.867
		c10.282-0.343,20.017-2.331,29.408-6.581c2.33-1.028,4.661-2.193,6.992-3.358c0.96-0.48,2.262-1.371,3.222-1.577
		c0.479-0.479,0.892-0.411,1.234,0.138c0.205,0.137,0.342,0.343,0.548,0.479c0.343,0.274,0.686,0.617,1.028,0.892
		c1.851,1.576,3.771,3.153,5.689,4.661c0.892,0.686,1.852,1.646,2.948,2.125c0.891,0.411,1.919,0.411,2.811,0.617
		c-1.852-2.674-4.25-5.005-6.444-7.473c-1.851-2.057-4.182-4.182-1.645-6.58C353.299,162.811,354.807,161.851,356.178,160.754z
		 M353.984,73.215c0.617-0.274,1.233-0.549,1.851-0.823c0.206-0.068,0.754-0.479,0.96-0.411c0.617,0,0.206-0.068,0.686,0.411
		c0.96,1.028,1.646,2.605,2.331,3.771c0.754,1.234,1.439,2.536,2.056,3.907c2.399,5.416,3.839,11.174,4.662,17.001
		c0.343,2.33,1.097,5.347,0.343,7.678c-0.754,2.262-3.017,3.153-5.005,4.112c-2.398,1.166-5.415,2.126-7.54,3.771
		c-1.782,1.371-2.125,3.839-3.359,5.621c-1.165,1.714-2.811,3.085-4.661,4.045c-1.234,0.617-2.331,0.96-3.702,0.96
		c-1.097,0-2.193,0.137-3.222,0.479c-2.262,0.686-4.113,2.193-5.621,3.907c-1.439,1.577-2.879,3.702-5.21,2.674
		c-2.33-1.028-4.25-3.564-6.101-5.278c-2.263-2.125-2.948-2.811-6.718-6.376c1.508-2.741,2.468-5.758,3.976-8.5
		c1.576-2.811,3.839-5.21,5.896-7.678c2.262-2.673,4.524-5.347,6.718-8.089c1.782-2.262,2.879-4.867,4.661-7.197
		c1.714-2.263,4.182-4.251,6.307-6.17c2.194-1.988,4.388-3.907,6.787-5.689C351.311,74.517,352.613,73.831,353.984,73.215z
		 M288.793,45.246c0.273-0.069,0.479-0.138,0.754-0.206c0.686-0.206,1.439-0.411,2.193-0.549c2.604-0.616,5.21-1.027,7.884-1.302
		c5.964-0.549,11.996-0.068,17.823,1.165c9.46,1.988,18.234,6.032,25.843,12.065c1.509,1.233,3.017,2.536,4.319,3.976
		c0.411,0.479,0.959,1.028,1.233,1.646c0.068,0.137,0.411,0.548,0.411,0.754c-0.068,0.274-1.439,1.165-1.645,1.371
		c-4.25,3.496-8.089,7.197-13.505,8.432c-11.174,2.604-29.751,11.448-31.67,12.271c-4.045-5.689-8.09-11.38-12.134-17.069
		c-0.411-0.548-1.646-1.782-1.714-2.399c-0.068-0.411,0.343-1.302,0.479-1.714c0.274-1.097,0.48-2.262,0.274-3.427
		c-0.205-0.892-0.822-1.44-1.097-2.263c-0.137-0.548,0-1.439,0-1.988c0-1.576,0-3.153,0-4.798c0-1.439-0.411-3.564,0-4.936
		C287.901,45.52,288.107,45.246,288.793,45.246z M277.276,159.177c-1.303,0.617-2.057,1.028-3.496,0.411
		c-1.234-0.479-2.468-1.37-3.565-2.125c-2.468-1.576-4.798-3.427-6.923-5.415c-4.456-4.182-8.638-9.117-11.859-14.327
		c-6.513-10.488-9.666-23.033-8.98-35.372c0.343-6.375,1.782-12.545,3.839-18.577c0.96-2.811,2.125-5.621,3.634-8.227
		c1.439-2.468,3.153-5.278,5.278-7.267c-0.823,4.456-2.468,9.323-1.646,13.848c0.754,4.045,3.358,7.335,6.443,9.939
		c2.057,1.714,4.182,3.291,6.17,5.073c1.439,1.303,3.153,2.811,3.633,4.729c1.028,3.908-3.564,8.98-4.936,11.174
		c-1.028-0.891-2.262-2.262-3.428-2.879c-1.165-0.548-2.056,0.617-2.193,1.851c-0.137,1.646,0.068,3.359-0.205,5.005
		c-0.274,1.645-0.755,3.29-1.371,4.867c-1.234,3.222-1.714,5.553-0.617,8.911c0.96,2.948,2.536,5.484,4.729,7.746
		c2.057,2.057,4.319,3.907,6.855,5.416c2.468,1.576,5.004,2.811,7.267,4.729c1.987,1.646,4.661,3.702,5.964,5.964
		C282.966,156.983,278.853,158.491,277.276,159.177z M278.167,162.33c1.714-1.165,4.867-4.524,7.061-3.016
		c2.605,1.714,3.291,5.826,4.799,7.472C285.708,166.923,281.458,164.936,278.167,162.33z M307.302,167.472
		c-4.388,0.274-8.844,0.411-13.23-0.206c0.137-0.411,0.205-0.891,0.411-1.302c0.137-0.274,0.754-0.754,0.754-0.96
		c0.068-0.822-1.576-2.742-1.988-3.496c-0.822-1.439-1.645-2.879-2.468-4.318c-0.137-0.206-0.273-0.412-0.343-0.617
		c-0.548-0.48-0.479-0.823,0.206-1.097c0.411-0.411,1.303-0.892,1.782-1.166c5.142-3.29,10.831-5.689,16.178-8.706
		C309.427,153.008,308.056,160.068,307.302,167.472z M298.253,148.141c-1.646,0.891-3.291,1.714-5.005,2.536
		c-1.233,0.617-3.496,2.125-4.798,1.782c-1.098-0.274-1.782-1.782-2.399-2.674c-0.892-1.233-1.782-2.468-2.605-3.77
		c-1.782-2.742-3.016-5.553-3.907-8.638c-0.548-1.714-1.165-3.428-1.714-5.142c-0.411-1.233-1.028-2.604-0.754-3.976
		c0.479-2.742,3.222-2.399,5.278-1.92c3.291,0.755,6.444,1.852,9.803,2.194c3.222,0.273,6.513-0.411,9.666,0
		c5.826,0.686,6.512,10.077,7.403,13.504C305.519,144.096,301.886,146.152,298.253,148.141z M325.467,164.387
		c-4.593,1.646-5.209,2.536-14.396,2.879c2.194-4.798,4.319-10.282,9.392-12.75c2.125-1.028,5.004-1.577,7.335-1.097
		c2.742,0.548,5.416,3.633,7.541,5.347C333.008,161.645,328.826,163.222,325.467,164.387z M347.678,150.54
		c-0.892,0.822-1.782,1.645-2.742,2.398c-0.274,0.206-0.548,0.412-0.822,0.617c-0.274,0.411-0.549,0.411-0.754,0
		c-0.343-0.137-0.96-0.754-1.234-1.028c-1.233-1.302-2.057-3.153-2.947-4.661c-0.892-1.508-1.782-3.017-2.605-4.524
		c-0.891-1.508-1.714-3.017-2.604-4.524c-0.823-1.439-2.194-3.085-2.331-4.799c0.479-0.686,0.549-0.754,0.479-0.548
		c1.783-1.782,5.21-1.303,7.473-2.399c3.016-1.439,4.661-3.907,7.197-5.896c2.674-2.057,5.759-2.742,9.049-2.536
		c1.577,0.137,3.085-0.068,4.593-0.617c1.439-0.548,2.605-1.508,4.113-1.919c0.274,3.77-1.508,7.746-3.085,11.104
		c-2.262,4.73-5.072,9.187-8.294,13.299C351.517,146.563,349.666,148.62,347.678,150.54z"/>
</g>
</svg>
